<svg width="500" height="500" viewBox="0 0 500 500" fill="none" xmlns="http://www.w3.org/2000/svg">
<path fill-rule="evenodd" clip-rule="evenodd" d="M455 137.005C459.35 131.435 465.45 113.795 456.28 106.645C447.11 99.4947 434.34 108.645 427.71 115.715C396.12 149.315 359.19 196.715 343.98 216.165L377.4 242.235C377.4 242.235 451.29 147.485 455 137.005Z" fill="#454541"/>
<path fill-rule="evenodd" clip-rule="evenodd" d="M44.0501 137.005C39.7101 131.385 33.6001 113.745 42.7701 106.595C51.9401 99.4449 64.7101 108.595 71.3501 115.665C102.93 149.265 139.87 196.665 155.07 216.115L121.65 242.185C121.65 242.185 47.7801 147.485 44.0501 137.005Z" fill="#454541"/>
<path d="M381.33 107.685H116.4V376.145H381.33V107.685Z" fill="#454541"/>
<path fill-rule="evenodd" clip-rule="evenodd" d="M207.54 433.405V373.185H168.68V447.365C171.14 453.295 185.44 457.965 202.24 457.965C220.77 457.965 235.8 452.425 235.8 445.595C235.8 439.435 223.55 434.345 207.54 433.405Z" fill="#454541"/>
<path fill-rule="evenodd" clip-rule="evenodd" d="M327.639 433.405V373.185H288.779V447.365C291.239 453.295 305.539 457.965 322.339 457.965C340.869 457.965 355.899 452.425 355.899 445.595C355.899 439.435 343.649 434.345 327.639 433.405Z" fill="#454541"/>
<path d="M248.859 249.745C278.125 249.745 301.849 226.02 301.849 196.755C301.849 167.489 278.125 143.765 248.859 143.765C219.594 143.765 195.869 167.489 195.869 196.755C195.869 226.02 219.594 249.745 248.859 249.745Z" fill="white"/>
<path d="M248.4 215.495C258.154 215.495 266.06 207.588 266.06 197.835C266.06 188.081 258.154 180.175 248.4 180.175C238.647 180.175 230.74 188.081 230.74 197.835C230.74 207.588 238.647 215.495 248.4 215.495Z" fill="#454541"/>
<path d="M186.459 264.235C187.369 256.495 204.999 267.485 244.659 268.235C289.569 269.035 310.379 255.705 311.379 264.235C312.619 274.855 282.989 314.065 248.919 314.015C214.849 313.965 185.219 274.665 186.459 264.235Z" fill="white" stroke="white" stroke-miterlimit="10"/>
</svg>
