<svg width="500" height="500" viewBox="0 0 500 500" fill="none" xmlns="http://www.w3.org/2000/svg">
<g clip-path="url(#clip0_582_6450)">
<path d="M383.35 108H118.42V376.46H383.35V108Z" fill="#454541"/>
<path fill-rule="evenodd" clip-rule="evenodd" d="M90.1407 340.16C86.7507 346.36 73.0007 359 62.7807 353.38C52.5607 347.76 55.9107 332.45 59.7807 323.55C78.0907 281.23 106.901 228.55 118.781 206.84L155.971 227.17C155.971 227.17 98.3207 332.55 90.1407 340.16Z" fill="#454541"/>
<path fill-rule="evenodd" clip-rule="evenodd" d="M411.451 340.16C414.841 346.36 428.611 358.96 438.811 353.38C449.011 347.8 445.671 332.45 441.811 323.55C423.501 281.23 394.701 228.55 382.811 206.84L345.611 227.17C345.611 227.17 403.271 332.55 411.451 340.16Z" fill="#454541"/>
<path fill-rule="evenodd" clip-rule="evenodd" d="M209.561 433.72V373.5H170.701V447.68C173.161 453.62 187.461 458.28 204.261 458.28C222.791 458.28 237.821 452.75 237.821 445.92C237.821 439.76 225.571 434.66 209.561 433.72Z" fill="#454541"/>
<path fill-rule="evenodd" clip-rule="evenodd" d="M329.661 433.72V373.5H290.801V447.68C293.261 453.62 307.571 458.28 324.361 458.28C342.891 458.28 357.921 452.75 357.921 445.92C357.921 439.76 345.671 434.66 329.661 433.72Z" fill="#454541"/>
<path d="M287.722 300.83C287.182 304.41 276.882 299.33 253.722 299C227.492 298.64 215.342 304.79 214.722 300.83C213.992 295.93 231.302 277.83 251.201 277.83C271.101 277.83 288.442 296 287.722 300.83Z" fill="white" stroke="white" stroke-miterlimit="10"/>
<path d="M250.881 248.07C280.146 248.07 303.871 224.345 303.871 195.08C303.871 165.814 280.146 142.09 250.881 142.09C221.615 142.09 197.891 165.814 197.891 195.08C197.891 224.345 221.615 248.07 250.881 248.07Z" fill="white"/>
<path d="M231.42 230.81C241.173 230.81 249.08 222.904 249.08 213.15C249.08 203.397 241.173 195.49 231.42 195.49C221.666 195.49 213.76 203.397 213.76 213.15C213.76 222.904 221.666 230.81 231.42 230.81Z" fill="#454541"/>
</g>
<defs>
<clipPath id="clip0_582_6450">
<rect width="389.58" height="350.28" fill="white" transform="translate(56 108)"/>
</clipPath>
</defs>
</svg>
