<svg xmlns="http://www.w3.org/2000/svg" xmlns:xlink="http://www.w3.org/1999/xlink" version="1.1" x="0px" y="0px" viewBox="0 0 40 28.074" style="enable-background:new 0 0 40 28.074;" xml:space="preserve"><path d="M0.832,28.073h19.163c0.002,0,0.002,0.001,0.004,0.001h19.168c0.222,0,0.431-0.087,0.589-0.245  C39.912,27.672,40,27.463,40,27.241V3.073c0-0.221-0.088-0.43-0.244-0.588c-0.156-0.159-0.367-0.245-0.589-0.245h-2.146  c-0.004-0.002-0.005-0.004-0.009-0.006C34.301,0.745,31.302,0,28.304,0c-2.851,0-5.701,0.682-8.305,2.03  C17.394,0.682,14.543,0,11.692,0C8.697,0,5.697,0.745,2.986,2.235C2.983,2.236,2.982,2.238,2.979,2.24H0.832  c-0.219,0-0.435,0.089-0.59,0.244C0.088,2.639,0,2.855,0,3.074v24.167c0,0.223,0.085,0.431,0.244,0.59  C0.4,27.988,0.609,28.073,0.832,28.073z M37.444,25.966c0-7.354,0-14.706,0-22.06h0.889v22.501h-1.019  C37.396,26.276,37.444,26.125,37.444,25.966z M20.968,26.407c2.307-1.156,4.821-1.74,7.336-1.74c2.514,0,5.027,0.584,7.338,1.74  H20.968z M20.832,3.906c0-0.146,0-0.292,0-0.439c2.344-1.201,4.907-1.801,7.472-1.801c2.563,0,5.127,0.6,7.474,1.8  c0,7.05,0,14.1,0,21.15C33.403,23.539,30.853,23,28.304,23c-2.55,0-5.099,0.539-7.472,1.617V3.906z M4.356,26.407  c2.309-1.155,4.82-1.741,7.337-1.741c2.514,0,5.028,0.586,7.338,1.741H4.356z M4.22,3.467c2.348-1.202,4.909-1.801,7.473-1.801  c2.563,0,5.126,0.601,7.475,1.801c-0.002,7.049-0.002,14.099-0.001,21.148C16.792,23.539,14.241,23,11.692,23  c-2.55,0-5.101,0.539-7.473,1.617C4.22,17.567,4.22,10.517,4.22,3.467z M1.664,3.906h0.891c-0.001,7.353-0.001,14.706,0,22.059  c0,0.16,0.048,0.311,0.131,0.442H1.664V3.906z"></path></svg>